<svg width="23" height="23" viewBox="0 0 23 23" fill="none" xmlns="http://www.w3.org/2000/svg">
<path d="M11.5003 21.0834C6.20745 21.0834 1.91699 16.7929 1.91699 11.5C1.91699 6.20715 6.20745 1.91669 11.5003 1.91669C16.7932 1.91669 21.0837 6.20715 21.0837 11.5C21.0837 16.7929 16.7932 21.0834 11.5003 21.0834ZM9.83771 14.6262C10.2283 15.0167 10.8615 15.0167 11.252 14.6261L16.6433 9.23407C17.0172 8.86007 17.0173 8.2538 16.6435 7.8797C16.2694 7.5054 15.6628 7.50529 15.2886 7.87946L11.252 11.9161C10.8614 12.3066 10.2283 12.3066 9.83776 11.9161L8.51128 10.5896C8.13709 10.2154 7.5304 10.2154 7.1562 10.5896C6.782 10.9638 6.782 11.5705 7.1562 11.9447L9.83771 14.6262Z" fill="url(#paint0_linear_1_5219)"/>
<defs>
<linearGradient id="paint0_linear_1_5219" x1="21.0837" y1="11.5" x2="1.2185" y2="11.5" gradientUnits="userSpaceOnUse">
<stop offset="0.0143686" stop-color="#7B63C2"/>
<stop offset="0.96836" stop-color="#6387C1"/>
</linearGradient>
</defs>
</svg>
