<svg width="29" height="29" viewBox="0 0 29 29" fill="none" xmlns="http://www.w3.org/2000/svg">
<path d="M4.81722 12.5272C4.36493 11.2754 4.13878 10.6496 4.23521 10.2485C4.34069 9.80982 4.65265 9.46782 5.05142 9.35373C5.41599 9.24943 5.98313 9.50149 7.11742 10.0056C8.1207 10.4515 8.62235 10.6745 9.09367 10.6621C9.61261 10.6484 10.1118 10.4403 10.5089 10.0721C10.8696 9.73767 11.1115 9.20475 11.5954 8.13889L12.6616 5.78991C13.5523 3.82776 13.9977 2.84668 14.7029 2.84668C15.4082 2.84668 15.8535 3.82776 16.7442 5.78991L17.8105 8.13889C18.2944 9.20475 18.5363 9.73767 18.897 10.0721C19.2941 10.4403 19.7933 10.6484 20.3122 10.6621C20.7835 10.6745 21.2852 10.4515 22.2885 10.0056C23.4228 9.50149 23.9899 9.24943 24.3545 9.35373C24.7532 9.46782 25.0652 9.80982 25.1707 10.2485C25.2671 10.6496 25.041 11.2754 24.5887 12.5272L22.6445 17.9077C21.8129 20.2094 21.3971 21.3602 20.5269 22.0104C19.6567 22.6605 18.5322 22.6605 16.2831 22.6605H13.1228C10.8737 22.6605 9.74921 22.6605 8.87902 22.0104C8.00882 21.3602 7.59299 20.2094 6.76135 17.9078L4.81722 12.5272Z" stroke="url(#paint0_linear_1_5372)" stroke-width="1.67835"/>
<path d="M14.7034 16.833H14.7138" stroke="url(#paint1_linear_1_5372)" stroke-width="2.2378" stroke-linecap="round" stroke-linejoin="round"/>
<path d="M8.87439 26.1589H20.5296" stroke="url(#paint2_linear_1_5372)" stroke-width="1.67835" stroke-linecap="round"/>
<defs>
<linearGradient id="paint0_linear_1_5372" x1="25.1926" y1="12.7536" x2="3.4487" y2="12.7536" gradientUnits="userSpaceOnUse">
<stop offset="0.0143686" stop-color="#7B63C2"/>
<stop offset="0.96836" stop-color="#6387C1"/>
</linearGradient>
<linearGradient id="paint1_linear_1_5372" x1="14.7138" y1="17.4158" x2="14.703" y2="17.4158" gradientUnits="userSpaceOnUse">
<stop offset="0.0143686" stop-color="#7B63C2"/>
<stop offset="0.96836" stop-color="#6387C1"/>
</linearGradient>
<linearGradient id="paint2_linear_1_5372" x1="20.5296" y1="26.6589" x2="8.44964" y2="26.6589" gradientUnits="userSpaceOnUse">
<stop offset="0.0143686" stop-color="#7B63C2"/>
<stop offset="0.96836" stop-color="#6387C1"/>
</linearGradient>
</defs>
</svg>
