<svg width="16" height="16" viewBox="0 0 16 16" fill="none" xmlns="http://www.w3.org/2000/svg">
<path d="M1.33325 4L5.94193 6.61131C7.64098 7.57401 8.35885 7.57401 10.0579 6.61131L14.6666 4" stroke="#5E5E5E" stroke-width="1.5" stroke-linejoin="round"/>
<path d="M1.34376 8.98367C1.38735 11.0274 1.40914 12.0492 2.16322 12.8062C2.91731 13.5631 3.96681 13.5895 6.0658 13.6422C7.35946 13.6747 8.64038 13.6747 9.93404 13.6422C12.033 13.5895 13.0825 13.5631 13.8366 12.8062C14.5907 12.0492 14.6125 11.0274 14.6561 8.98367C14.6701 8.32655 14.6701 7.6733 14.6561 7.01618C14.6125 4.97249 14.5907 3.95065 13.8366 3.19369C13.0825 2.43674 12.033 2.41037 9.93404 2.35763C8.64038 2.32513 7.35946 2.32513 6.0658 2.35763C3.9668 2.41036 2.91731 2.43673 2.16322 3.19368C1.40913 3.95064 1.38734 4.97248 1.34376 7.01617C1.32975 7.6733 1.32975 8.32654 1.34376 8.98367Z" stroke="#5E5E5E" stroke-width="1.5" stroke-linejoin="round"/>
</svg>
