<svg width="16" height="16" viewBox="0 0 16 16" fill="none" xmlns="http://www.w3.org/2000/svg">
<path d="M15.9093 14.7568C14.7389 12.7334 12.9352 11.2825 10.8303 10.5947C11.8715 9.97486 12.6804 9.0304 13.1329 7.90634C13.5854 6.78229 13.6563 5.54079 13.3349 4.3725C13.0135 3.2042 12.3174 2.17372 11.3537 1.4393C10.3899 0.704881 9.2117 0.307129 8 0.307129C6.7883 0.307129 5.6101 0.704881 4.64633 1.4393C3.68257 2.17372 2.98653 3.2042 2.6651 4.3725C2.34368 5.54079 2.41464 6.78229 2.8671 7.90634C3.31955 9.0304 4.12848 9.97486 5.16965 10.5947C3.06476 11.2817 1.26112 12.7326 0.0907097 14.7568C0.0477887 14.8268 0.0193195 14.9047 0.00698186 14.9858C-0.00535579 15.067 -0.00131202 15.1498 0.0188746 15.2294C0.0390612 15.309 0.0749818 15.3837 0.124517 15.4492C0.174052 15.5146 0.236198 15.5695 0.307289 15.6106C0.37838 15.6517 0.456975 15.6781 0.538437 15.6883C0.6199 15.6985 0.702579 15.6922 0.781598 15.67C0.860616 15.6477 0.934373 15.6098 0.998516 15.5586C1.06266 15.5073 1.11589 15.4438 1.15507 15.3716C2.6029 12.8694 5.16197 11.3755 8 11.3755C10.838 11.3755 13.3971 12.8694 14.8449 15.3716C14.8841 15.4438 14.9373 15.5073 15.0015 15.5586C15.0656 15.6098 15.1394 15.6477 15.2184 15.67C15.2974 15.6922 15.3801 15.6985 15.4616 15.6883C15.543 15.6781 15.6216 15.6517 15.6927 15.6106C15.7638 15.5695 15.8259 15.5146 15.8755 15.4492C15.925 15.3837 15.9609 15.309 15.9811 15.2294C16.0013 15.1498 16.0054 15.067 15.993 14.9858C15.9807 14.9047 15.9522 14.8268 15.9093 14.7568ZM3.69646 5.84234C3.69646 4.99118 3.94886 4.15914 4.42174 3.45142C4.89462 2.74371 5.56674 2.19211 6.35311 1.86639C7.13948 1.54066 8.00477 1.45544 8.83958 1.62149C9.67438 1.78755 10.4412 2.19742 11.0431 2.79928C11.6449 3.40114 12.0548 4.16796 12.2208 5.00276C12.3869 5.83757 12.3017 6.70287 11.976 7.48923C11.6502 8.2756 11.0986 8.94772 10.3909 9.4206C9.6832 9.89348 8.85116 10.1459 8 10.1459C6.859 10.1447 5.76509 9.69086 4.95829 8.88405C4.15148 8.07725 3.69768 6.98334 3.69646 5.84234Z" fill="#5E5E5E"/>
</svg>
